<?xml version="1.0" encoding="UTF-8"?>
<svg version="1.1" xmlns="http://www.w3.org/2000/svg" width="1200" height="1200">
<path d="M0 0 C1.79282087 0.93602815 3.60237416 1.83978387 5.41210938 2.74267578 C21.6222075 10.92588028 36.77235733 21.50261708 50.83398438 32.95751953 C52.34605469 34.16408203 52.34605469 34.16408203 53.88867188 35.39501953 C62.10990335 42.10497681 69.6302566 49.54325192 77.14648438 57.02001953 C77.65845367 57.5267218 78.17042297 58.03342407 78.69790649 58.55548096 C85.54519056 65.34826132 91.87577407 72.35479259 97.83398438 79.95751953 C98.37144287 80.63564697 98.90890137 81.31377441 99.46264648 82.01245117 C148.08133009 143.94349061 170.35826362 223.92751554 161.70898438 302.14501953 C157.02604994 339.93125728 145.86975745 376.40178589 127.83398438 409.95751953 C127.47449707 410.6271875 127.11500977 411.29685547 126.74462891 411.98681641 C116.64145276 430.65906385 104.62190735 449.18795006 89.99414062 464.65673828 C88.14847014 466.62256091 86.38633578 468.62625349 84.62695312 470.66845703 C74.71598738 482.03470383 63.83923291 492.81919602 51.83398438 501.95751953 C50.55047056 502.96801791 49.26800232 503.97984512 47.98632812 504.99267578 C-14.33807111 553.88846056 -93.97592279 576.14336887 -172.64355469 567.36816406 C-246.63050787 558.25942168 -321.08516222 521.95743052 -367.98242188 462.68798828 C-369.40704249 460.90657538 -370.87222635 459.15664917 -372.38085938 457.44580078 C-385.86388703 442.07829006 -396.87624011 424.12958991 -406.16601562 405.95751953 C-406.57513184 405.1637793 -406.98424805 404.37003906 -407.40576172 403.55224609 C-423.98647674 371.05277166 -435.03047847 334.37923763 -438.16601562 297.95751953 C-438.25214111 296.95889893 -438.3382666 295.96027832 -438.42700195 294.93139648 C-444.85075937 213.72206069 -419.88741095 134.89881213 -367.6394043 72.44433594 C-355.76046611 58.5279833 -342.74222233 45.05284105 -328.16601562 33.95751953 C-327.08298272 33.08798532 -326.00240857 32.21538303 -324.92382812 31.34033203 C-282.87334383 -2.61189179 -231.50721325 -23.49122566 -178.16601562 -31.04248047 C-176.97637207 -31.2181958 -176.97637207 -31.2181958 -175.76269531 -31.39746094 C-116.31813769 -39.80565499 -52.90557669 -27.84867738 0 0 Z M-258.16601562 24.95751953 C-258.87838379 25.30218262 -259.59075195 25.6468457 -260.32470703 26.00195312 C-280.82817549 36.00468618 -300.12498913 49.42771726 -316.89648438 64.87158203 C-318.99361612 66.79906629 -321.12977917 68.6651331 -323.29101562 70.52001953 C-327.41877744 74.12549311 -331.57814995 77.80666429 -335.16601562 81.95751953 C-335.16601562 82.61751953 -335.16601562 83.27751953 -335.16601562 83.95751953 C-336.65101563 84.45251953 -336.65101563 84.45251953 -338.16601562 84.95751953 C-340.14425857 87.02691342 -340.14425857 87.02691342 -342.16601562 89.64501953 C-342.96523438 90.65048828 -343.76445312 91.65595703 -344.58789062 92.69189453 C-345.01005859 93.22878906 -345.43222656 93.76568359 -345.8671875 94.31884766 C-347.14194578 95.92715171 -348.43947611 97.51404961 -349.74414062 99.09814453 C-388.29716997 146.33326195 -408.73616349 206.86511324 -408.47851562 267.58251953 C-408.47636047 268.5022757 -408.47420532 269.42203186 -408.47198486 270.36965942 C-408.41806399 284.75297387 -407.85573102 298.79265967 -405.16601562 312.95751953 C-404.87597656 314.52518066 -404.87597656 314.52518066 -404.58007812 316.12451172 C-400.05274406 339.91397542 -392.91591297 363.21883823 -382.16601562 384.95751953 C-381.7185498 385.8648584 -381.27108398 386.77219727 -380.81005859 387.70703125 C-368.36019899 415.43020593 -368.36019899 415.43020593 -348.16601562 436.95751953 C-347.8746875 435.78318359 -347.58335937 434.60884766 -347.28320312 433.39892578 C-340.90512643 408.14311713 -331.58933915 384.75148977 -317.16601562 362.95751953 C-316.7523877 362.33151855 -316.33875977 361.70551758 -315.91259766 361.06054688 C-302.93688084 341.67280715 -286.83245918 324.87729412 -268.16601562 310.95751953 C-267.60688477 310.53229004 -267.04775391 310.10706055 -266.47167969 309.66894531 C-251.82975142 298.55287543 -222.39957922 276.79157769 -203.16601562 278.95751953 C-200.14257812 280.31298828 -200.14257812 280.31298828 -196.79101562 282.14501953 C-189.50066046 285.94981185 -182.08682267 288.76400719 -174.16601562 290.95751953 C-173.47958984 291.15506836 -172.79316406 291.35261719 -172.0859375 291.55615234 C-141.03471614 300.15646796 -104.71091143 296.3017304 -76.41601562 280.95751953 C-75.74054688 280.54501953 -75.06507813 280.13251953 -74.36914062 279.70751953 C-68.24668385 277.62327893 -61.81039263 281.08560239 -56.22851562 283.52001953 C-54.97627197 284.06118408 -54.97627197 284.06118408 -53.69873047 284.61328125 C-51.18085163 285.71302791 -48.67213328 286.83125983 -46.16601562 287.95751953 C-45.47266113 288.2657666 -44.77930664 288.57401367 -44.06494141 288.89160156 C-27.44342699 296.3835139 -11.80101081 306.87819494 1.83398438 318.95751953 C3.04828125 320.00939453 3.04828125 320.00939453 4.28710938 321.08251953 C6.84362719 323.33354151 9.34593157 325.63107741 11.83398438 327.95751953 C12.76984375 328.82763672 13.70570313 329.69775391 14.66992188 330.59423828 C23.08640099 338.60542277 30.05328067 347.54402317 36.83398438 356.95751953 C37.28515625 357.57997559 37.73632812 358.20243164 38.20117188 358.84375 C53.55077248 380.24597721 64.37368659 404.70259002 70.33935547 430.33496094 C70.7846633 432.22241628 71.30207109 434.09261873 71.83398438 435.95751953 C72.49398438 436.28751953 73.15398437 436.61751953 73.83398438 436.95751953 C86.62045905 419.93793737 97.79026329 402.24386837 106.83398438 382.95751953 C107.3202832 381.94286621 107.3202832 381.94286621 107.81640625 380.90771484 C137.52608426 318.67954912 140.47095157 244.73855329 118.11889648 179.74243164 C107.51600077 150.05805048 92.70156083 122.54688174 72.65039062 98.18408203 C70.09685786 95.05394509 67.69023909 91.81546191 65.27929688 88.57470703 C64.80234375 88.04103516 64.32539062 87.50736328 63.83398438 86.95751953 C63.17398437 86.95751953 62.51398438 86.95751953 61.83398438 86.95751953 C61.44811157 86.0848645 61.44811157 86.0848645 61.05444336 85.19458008 C59.72550708 82.75868427 58.26284006 81.12773576 56.30664062 79.16455078 C55.60249023 78.4562915 54.89833984 77.74803223 54.17285156 77.01831055 C53.42165039 76.27637451 52.67044922 75.53443848 51.89648438 74.77001953 C51.12594727 74.0055249 50.35541016 73.24103027 49.56152344 72.45336914 C43.90714572 66.89662352 38.13483742 61.77581892 31.83398438 56.95751953 C30.33351563 55.76642578 30.33351563 55.76642578 28.80273438 54.55126953 C-47.2370179 -5.55501111 -151.46172782 -18.62627494 -258.16601562 24.95751953 Z " fill="#000000" transform="translate(739.166015625,333.04248046875)"/>
<path d="M0 0 C1.13953125 0.36222656 2.2790625 0.72445313 3.453125 1.09765625 C17.94729136 6.26164064 30.40185149 13.98130562 42 24 C42.74765625 24.64453125 43.4953125 25.2890625 44.265625 25.953125 C62.74808175 43.23347074 74.57085692 69.00821023 76.20507812 94.15576172 C76.30215802 97.37772442 76.32908177 100.58914769 76.3125 103.8125 C76.30512817 105.52143433 76.30512817 105.52143433 76.29760742 107.26489258 C76.17815279 115.8723648 75.39240635 123.69410537 73 132 C72.6596875 133.22332031 72.319375 134.44664062 71.96875 135.70703125 C63.69355894 162.85301273 44.81748891 185.6212598 19.90380859 199.13720703 C-7.30155729 213.31971712 -37.30354801 215.81351705 -66.5625 206.875 C-94.30788107 196.93414154 -116.87364466 177.3617963 -129.8125 150.8125 C-142.5938645 123.54485101 -143.47748185 93.0098366 -133.50390625 64.7265625 C-129.08743448 53.38527801 -122.7008161 43.39738144 -115 34 C-114.30261719 33.13761719 -113.60523438 32.27523437 -112.88671875 31.38671875 C-86.04495481 -0.16584837 -39.16356587 -12.47697897 0 0 Z " fill="#000000" transform="translate(633,390)"/>
</svg>
